<?xml version="1.0" encoding="utf-8"?>
<!-- Generator: Adobe Illustrator 26.2.1, SVG Export Plug-In . SVG Version: 6.00 Build 0)  -->
<svg version="1.1" id="Layer_1" xmlns="http://www.w3.org/2000/svg" xmlns:xlink="http://www.w3.org/1999/xlink" x="0px" y="0px"
	 viewBox="0 0 585.5 367.1" style="enable-background:new 0 0 585.5 367.1;" xml:space="preserve">
<style type="text/css">
	.st0{fill:#FFFFFF;}
</style>
<path class="st0" d="M235.8,164.5C268.2,149,285,125.6,285,89.2C285,17.5,231.6,0,169.9,0H0v360.2h174.6c65.5,0,127-31.4,127-104.6
	C301.6,210.4,280.1,177,235.8,164.5L235.8,164.5z M79.2,61.5h74.3c28.6,0,54.3,8,54.3,41.2c0,30.6-20,42.9-48.3,42.9H79.2V61.5z
	 M163.9,299.1H79.2v-99.2h86.3c34.9,0,56.9,14.5,56.9,51.4C222.4,287.7,196.1,299.1,163.9,299.1L163.9,299.1z M528.3,54.4H382.2
	V18.9h146.1L528.3,54.4L528.3,54.4z M585.5,233.6c0-77.2-45.1-141.5-127-141.5c-79.5,0-133.5,59.8-133.5,138
	c0,81.2,51.1,136.9,133.5,136.9c62.3,0,102.7-28.1,122.1-87.7h-63.2c-6.8,22.3-34.9,34.1-56.6,34.1c-42,0-64-24.6-64-66.4H585
	C585.2,242.7,585.5,238.2,585.5,233.6z M396.8,201.9c2.3-34.3,25.1-55.7,59.5-55.7c36,0,54.1,21.1,57.1,55.7H396.8z"/>
</svg>
