<?xml version="1.0" encoding="utf-8"?>
<!-- Generator: Adobe Illustrator 26.2.1, SVG Export Plug-In . SVG Version: 6.00 Build 0)  -->
<svg version="1.1" id="Layer_1" xmlns="http://www.w3.org/2000/svg" xmlns:xlink="http://www.w3.org/1999/xlink" x="0px" y="0px"
	 viewBox="0 0 204.5 179.2" style="enable-background:new 0 0 204.5 179.2;" xml:space="preserve">
<path d="M202.8,65.8L161.2,4.2c-1.8-2.6-5.1-4.2-8-4.2H50.5c-2.8,0-5.8,1.6-7.6,4.2L1.7,65.8c-2.5,3.7-2.1,8.7,1,12l92.4,98.5
	c1.8,1.9,4.4,3,7,3s5.2-1.1,7-3l92.8-98.5C205,74.4,205.4,69.5,202.8,65.8z M152.7,25.8L178.1,64h-56L152.7,25.8z M102.1,58.8
	L70.7,19.2h62.7L102.1,58.8z M51.5,25.8L81.7,64H25.7L51.5,25.8z M102.1,155.6L33.8,83.2h136.5L102.1,155.6z"/>
</svg>
