<?xml version="1.0" encoding="utf-8"?>
<!-- Generator: Adobe Illustrator 26.2.1, SVG Export Plug-In . SVG Version: 6.00 Build 0)  -->
<svg version="1.1" id="Layer_1" xmlns="http://www.w3.org/2000/svg" xmlns:xlink="http://www.w3.org/1999/xlink" x="0px" y="0px"
	 viewBox="0 0 256 179.2" style="enable-background:new 0 0 256 179.2;" xml:space="preserve">
<path d="M51.2,25.6h153.6V128h25.6V19.2c0-10.6-8.6-19.2-19.2-19.2H44.8C34.2,0,25.6,8.6,25.6,19.2V128h25.6V25.6z M249.6,140.8H6.4
	c-3.5,0-6.4,2.9-6.4,6.4v6.4c0,14.1,11.5,25.6,25.6,25.6h204.8c14.1,0,25.6-11.5,25.6-25.6v-6.4C256,143.7,253.1,140.8,249.6,140.8z
	 M146.4,101.7c1.6,1.6,3.6,2.3,5.6,2.3s4.1-0.8,5.6-2.3l19.2-19.2c3.1-3.1,3.1-8.2,0-11.3L157.6,52c-3.1-3.1-8.2-3.1-11.3,0
	c-3.1,3.1-3.1,8.2,0,11.3l13.6,13.5l-13.6,13.5C143.2,93.5,143.2,98.6,146.4,101.7z M109.6,52c-3.1-3.1-8.2-3.1-11.3,0L79.1,71.2
	c-3.1,3.1-3.1,8.2,0,11.3l19.2,19.2c1.6,1.6,3.6,2.3,5.7,2.3c2,0,4.1-0.8,5.6-2.3c3.1-3.1,3.1-8.2,0-11.3L96.1,76.8l13.6-13.5
	C112.4,60.2,112.4,55.1,109.6,52z"/>
</svg>
