<?xml version="1.0" encoding="utf-8"?>
<!-- Generator: Adobe Illustrator 26.2.1, SVG Export Plug-In . SVG Version: 6.00 Build 0)  -->
<svg version="1.1" id="Layer_1" xmlns="http://www.w3.org/2000/svg" xmlns:xlink="http://www.w3.org/1999/xlink" x="0px" y="0px"
	 viewBox="0 0 361.1 361.1" style="enable-background:new 0 0 361.1 361.1;" xml:space="preserve">
<style type="text/css">
	.st0{fill:#FFFFFF;}
</style>
<path class="st0" d="M80.8,361.1H6V120h74.9L80.8,361.1L80.8,361.1z M43.4,87.1C19.4,87.1,0,67.3,0,43.4S19.4,0,43.4,0
	s43.4,19.4,43.4,43.4S67.3,87.1,43.4,87.1z M361,361.1h-74.7V243.7c0-28-0.6-63.8-38.9-63.8c-38.9,0-44.9,30.4-44.9,61.8v119.4
	h-74.8V120h71.8v32.9h1c10-18.9,34.4-38.9,70.8-38.9c75.8,0,89.7,49.9,89.7,114.7V361.1L361,361.1z"/>
</svg>
