<?xml version="1.0" encoding="utf-8"?>
<!-- Generator: Adobe Illustrator 26.2.1, SVG Export Plug-In . SVG Version: 6.00 Build 0)  -->
<svg version="1.1" id="Layer_1" xmlns="http://www.w3.org/2000/svg" xmlns:xlink="http://www.w3.org/1999/xlink" x="0px" y="0px"
	 viewBox="0 0 224 179.2" style="enable-background:new 0 0 224 179.2;" xml:space="preserve">
<path d="M78.3,61.6c0,9.3-7.5,16.8-16.8,16.8s-16.8-7.5-16.8-16.8s7.5-16.8,16.8-16.8S78.3,52.3,78.3,61.6z M33.6,108.2
	c0-10.3,8.4-18.6,18.6-18.6h24.3c3.2,0,6.2,0.8,8.8,2.2c-11.3,4.2-20,13.8-22.8,25.8H42.9C37.8,117.6,33.6,113.4,33.6,108.2
	L33.6,108.2z M138.3,91.8c3-1.4,6-2.2,9.2-2.2h24.3c10.3,0,18.6,8.4,18.6,18.6c0,5.2-4.2,9.4-9.4,9.4h-19.6
	C158.6,105.7,150,96,138.3,91.8L138.3,91.8z M130.2,100.8c9.1,1.8,16.6,8.3,19.6,16.8c1,2.6,1.4,5.4,1.4,8.4c0,4.6-3.8,8.4-8.4,8.4
	H81.2c-4.6,0-8.4-3.8-8.4-8.4c0-3,0.5-5.8,1.4-8.4c3-8.5,10.2-14.9,19.2-16.8c1.7,0.1,3.1,0,4.5,0h28
	C127.4,100.8,128.8,100.9,130.2,100.8L130.2,100.8z M179.2,61.6c0,9.3-7.5,16.8-16.8,16.8c-9.3,0-16.8-7.5-16.8-16.8
	s7.5-16.8,16.8-16.8C171.7,44.8,179.2,52.3,179.2,61.6z M89.6,67.2c0-12.4,10-22.4,22.4-22.4s22.4,10,22.4,22.4s-10,22.4-22.4,22.4
	S89.6,79.6,89.6,67.2z M190.4,0C209,0,224,15,224,33.6v112c0,18.6-15,33.6-33.6,33.6H33.6C15,179.2,0,164.2,0,145.6v-112
	C0,15,15,0,33.6,0H190.4z M22.4,145.6c0,6.2,5,11.2,11.2,11.2h156.8c6.2,0,11.2-5,11.2-11.2v-112c0-6.2-5-11.2-11.2-11.2H33.6
	c-6.2,0-11.2,5-11.2,11.2V145.6z"/>
</svg>
